<svg xmlns="http://www.w3.org/2000/svg" viewBox="0 0 64 64"><path fill="#de4463" d="M60.4148,18.4061a3.9728,3.9728,0,0,0-2.5332-1.7378l-19.6485-4.18a1,1,0,0,0-1.208.978v32.64a2.01,2.01,0,0,1-2.0068,2.0078H20.6228a1,1,0,0,0-.9785.7935l-.57,2.7022a4.0039,4.0039,0,0,0,3.085,4.7578L48.27,61.91a3.9686,3.9686,0,0,0,.8408.09,4.0213,4.0213,0,0,0,3.917-3.1758l7.9385-37.4092A3.9577,3.9577,0,0,0,60.4148,18.4061Z"/><path fill="#ffd57e" d="M6.9494,2H35.0178a4.0073,4.0073,0,0,1,4.0073,4.0073V46.1058a4.0078,4.0078,0,0,1-4.0078,4.0078H6.9489a4.0068,4.0068,0,0,1-4.0068-4.0068V6.0077A4.0073,4.0073,0,0,1,6.9494,2Z"/><path fill="#84471e" d="M60.4149,18.4059a3.9723,3.9723,0,0,0-2.5332-1.7378L39.0253,12.6564V6.0074A4.012,4.012,0,0,0,35.0185,2H6.9491A4.012,4.012,0,0,0,2.9423,6.0074V46.1056a4.012,4.012,0,0,0,4.0068,4.0078H19.39l-.3157,1.4956a4.0039,4.0039,0,0,0,3.085,4.7578L48.27,61.91a3.9743,3.9743,0,0,0,.8408.09,4.0213,4.0213,0,0,0,3.917-3.1757l7.9385-37.4092A3.9572,3.9572,0,0,0,60.4149,18.4059ZM6.9491,48.1134a2.01,2.01,0,0,1-2.0068-2.0078V6.0074A2.0094,2.0094,0,0,1,6.9491,4H35.0185a2.0094,2.0094,0,0,1,2.0068,2.0073V46.1056a2.01,2.01,0,0,1-2.0068,2.0078H6.9491Zm52.0625-27.12-.001.0039L51.0722,58.4054a2.0108,2.0108,0,0,1-.8741,1.271,1.987,1.987,0,0,1-1.5087.2778L22.5731,54.41A2.0035,2.0035,0,0,1,21.03,52.0265l.4033-1.9131h13.585a4.0121,4.0121,0,0,0,4.0068-4.0078V14.7013l18.4434,3.9233a1.99,1.99,0,0,1,1.2685.87A1.9693,1.9693,0,0,1,59.0116,20.9933Z"/></svg>